<?xml version="1.0" encoding="UTF-8"?>
<svg width="274px" height="46px" viewBox="0 0 274 46" version="1.1" xmlns="http://www.w3.org/2000/svg" xmlns:xlink="http://www.w3.org/1999/xlink">
    <title>LoveAdmin Logo Reversed Out</title>
    <g id="Page-1" stroke="none" stroke-width="1" fill="none" fill-rule="evenodd">
        <g id="T1-Home" transform="translate(-108.000000, -28.000000)">
            <g id="LoveAdmin-Logo-Reversed-Out" transform="translate(108.000000, 28.768075)">
                <path d="M28.9137176,38.4627318 C24.4417839,38.4627318 19.6313783,35.1600652 19.6313783,27.9188149 C19.6313783,24.7084589 20.6057675,22.021196 22.4519786,20.1442147 C24.1238254,18.4415978 26.4213325,17.5082355 28.9137176,17.5082355 C33.5292454,17.5082355 38.1960568,20.7288482 38.1960568,27.9188149 C38.1960568,35.2010921 33.5292454,38.4627318 28.9137176,38.4627318 Z M28.9137176,10.9746995 C19.3236764,10.9746995 12.3696145,18.092869 12.3696145,27.9188149 C12.3696145,37.7755309 19.3236764,44.9244707 28.9137176,44.9244707 C38.5447856,44.9244707 45.5296177,37.7755309 45.5296177,27.9188149 C45.5296177,18.092869 38.5447856,10.9746995 28.9137176,10.9746995 Z" id="Shape" fill="#FFFFFF"></path>
                <path d="M70.8329668,12.995275 L62.7198946,34.072852 C62.51476,34.6062019 61.7660188,34.6062019 61.5608843,34.072852 L53.2529342,12.9850182 C53.0170295,12.3696145 52.4221392,11.9696021 51.7657086,11.9696021 L47.3348019,11.9696021 C46.1860483,11.9696021 45.4167937,13.1388692 45.857833,14.1850555 L57.7043544,42.3500318 C58.1043668,43.3039076 59.0479858,43.929568 60.0839154,43.929568 L64.0430126,43.929568 C65.0994556,43.929568 66.0430746,43.2936509 66.4328303,42.3192617 L77.8793393,14.1747987 C78.2998651,13.1183557 77.5306105,11.9696021 76.3921136,11.9696021 L72.3304492,11.9696021 C71.6637618,11.9696021 71.0791283,12.3798713 70.8329668,12.995275 Z" id="Path" fill="#FFFFFF"></path>
                <path d="M93.8900924,16.9748856 C98.4133097,16.9748856 101.521098,19.528811 102.033935,23.5494486 C102.074962,23.9289475 101.787773,24.2571628 101.408274,24.2571628 L86.4744777,24.2571628 C86.084722,24.2571628 85.7872769,23.9084341 85.859074,23.5289351 C86.4949912,20.2160118 89.3463617,16.9748856 93.8900924,16.9748856 Z M108.218742,29.8163097 C108.844403,29.8163097 109.357239,29.3342434 109.398266,28.708583 C109.418779,28.3701109 109.439293,27.990612 109.439293,27.5803429 C109.439293,17.3338711 103.449363,10.9746995 93.8182953,10.9746995 C86.1770326,10.9746995 78.2690949,17.262074 78.2690949,27.7854774 C78.2690949,36.298562 83.8897821,44.9244707 94.6183201,44.9244707 C102.033935,44.9244707 106.475098,40.8217793 108.423877,36.4934399 C108.762349,35.7446987 108.362336,34.8626201 107.582825,34.6062019 L104.064767,33.4984752 C103.439107,33.3035973 102.731392,33.5702723 102.444204,34.1754193 C100.998005,37.1601272 98.3107424,38.7294067 94.6183201,38.7294067 C89.6438068,38.7294067 85.74625,34.9959575 85.5411154,30.0522144 C85.5411154,30.0522144 85.5000885,29.8163097 85.8385605,29.8163097 L108.218742,29.8163097 Z" id="Shape" fill="#FFFFFF"></path>
                <path d="M158.343374,38.3909347 C152.999619,38.3909347 149.399507,34.1549058 149.399507,27.8470178 C149.399507,21.7545211 153.112443,17.5082355 158.415171,17.5082355 C163.728157,17.5082355 167.153904,21.5391298 167.153904,27.7854774 C167.153904,34.0318251 163.533279,38.3909347 158.343374,38.3909347 Z M172.784848,0 L168.466765,0 C167.707767,0 167.092363,0.615403708 167.092363,1.37440161 L167.092363,16.5235896 L166.661581,15.6312542 C166.148744,14.5748112 163.953805,11.1080369 157.348471,11.1080369 C148.671279,11.1080369 142.127486,18.2980036 142.127486,27.8470178 C142.127486,37.7857877 148.445631,44.7295928 157.481809,44.7295928 C162.333241,44.7295928 165.482057,42.2064376 166.805175,39.8473901 L167.225701,39.0986489 L167.225701,39.9602141 C167.225701,40.7499822 167.297498,41.8064252 167.379552,42.6782472 C167.441092,43.3859614 168.035982,43.929568 168.743697,43.929568 L172.959212,43.929568 C173.759237,43.929568 174.384897,43.2526239 174.323357,42.4525991 C174.241303,41.3756426 174.159249,39.888417 174.159249,38.2370837 L174.159249,1.37440161 C174.159249,0.615403708 173.543846,0 172.784848,0 Z" id="Shape" fill="#FFFFFF"></path>
                <path d="M233.904693,43.929568 L238.622788,43.929568 C239.309989,43.929568 239.863852,43.3757047 239.863852,42.6885039 L239.863852,13.2824634 C239.863852,12.5542356 239.279218,11.9696021 238.561247,11.9696021 L233.97649,11.9696021 C233.248262,11.9696021 232.663629,12.5542356 232.663629,13.2824634 L232.663629,42.6885039 C232.663629,43.3757047 233.217492,43.929568 233.904693,43.929568 Z" id="Path" fill="#FFFFFF"></path>
                <path d="M216.252863,11.0362398 C211.545025,11.0362398 208.170561,12.8721942 205.924337,16.6466703 L205.708946,17.0261693 L205.524325,16.6261568 C203.903762,13.0773288 200.436988,11.0362398 196.016338,11.0362398 C194.365004,11.0362398 191.359783,11.0362398 188.098143,13.5183681 C187.318632,14.1132584 186.641688,13.7029892 186.251932,13.0260452 C185.862177,12.3593578 185.267286,11.9696021 184.395464,11.9696021 C183.780061,11.9696021 180.579961,11.9696021 180.579961,11.9696021 C179.86199,11.9696021 179.277357,12.5542356 179.277357,13.2824634 L179.277357,42.6885039 C179.277357,43.3757047 179.83122,43.929568 180.518421,43.929568 L185.236516,43.929568 C185.91346,43.929568 186.47758,43.3757047 186.47758,42.6885039 L186.47758,24.9238502 C186.47758,20.5544839 189.328951,17.5082355 193.421385,17.5082355 C197.48305,17.5082355 199.903638,20.0826743 199.903638,24.3905003 L199.903638,42.6885039 C199.903638,43.3757047 200.457501,43.929568 201.144702,43.929568 L205.801257,43.929568 C206.488458,43.929568 207.042321,43.3757047 207.042321,42.6885039 L207.042321,24.9238502 C207.042321,20.6262809 209.965488,17.5082355 213.986126,17.5082355 C218.047791,17.5082355 220.468378,20.0826743 220.468378,24.3905003 L220.468378,42.6885039 C220.468378,43.3757047 221.022242,43.929568 221.709443,43.929568 L226.23266,43.929568 C226.919861,43.929568 227.473724,43.3757047 227.473724,42.6885039 L227.473724,23.118666 C227.473724,17.5492624 224.530043,11.0362398 216.252863,11.0362398 Z" id="Path" fill="#FFFFFF"></path>
                <path d="M262.19275,11.0362398 C262.151723,11.0362398 262.100439,11.0362398 262.059412,11.0362398 L262.059412,11.0362398 C260.397822,11.0362398 257.392601,11.0362398 254.130961,13.5183681 C253.361707,14.1132584 252.684763,13.7029892 252.295007,13.0260452 C251.905251,12.3593578 251.310361,11.9696021 250.438539,11.9696021 C249.823135,11.9696021 246.623036,11.9696021 246.623036,11.9696021 C245.894808,11.9696021 245.310175,12.5542356 245.310175,13.2824634 L245.310175,42.6885039 C245.310175,43.3757047 245.864038,43.929568 246.551239,43.929568 L251.341131,43.929568 C252.028332,43.929568 252.582195,43.3757047 252.582195,42.6885039 L252.582195,25.4572001 C252.582195,20.6673079 255.310485,17.5697759 259.526,17.5697759 C263.967164,17.5697759 266.408265,20.2057551 266.408265,24.9853905 L266.408265,42.6885039 C266.408265,43.3757047 266.962129,43.929568 267.649329,43.929568 L272.439222,43.929568 C273.126422,43.929568 273.680286,43.3757047 273.680286,42.6885039 L273.680286,23.6520158 C273.680286,17.5595191 270.664808,11.0362398 262.19275,11.0362398 Z" id="Path" fill="#FFFFFF"></path>
                <path d="M135.040087,42.9038952 L126.916758,21.8263182 C126.72188,21.2929683 125.973139,21.2929683 125.768004,21.8160615 L117.460054,42.9141519 C117.213893,43.5295556 116.629259,43.929568 115.972829,43.929568 L111.531665,43.929568 C110.393169,43.929568 109.613657,42.760301 110.054696,41.703858 L121.911475,13.5491383 C122.311487,12.5952626 123.244849,11.9696021 124.291036,11.9696021 L128.250133,11.9696021 C129.296319,11.9696021 130.239938,12.6055193 130.63995,13.5799085 L142.076203,41.7243714 C142.506985,42.7808144 141.727474,43.929568 140.599234,43.929568 L136.527313,43.929568 C135.870882,43.929568 135.275992,43.5192989 135.040087,42.9038952 Z" id="Path" fill="#29B8CC"></path>
                <path d="M1.12824013,44.914214 C0.779511364,44.914214 0.502579695,44.8321601 0.297445126,44.6680525 C0.102567285,44.5039448 0,44.2680401 0,43.9808517 L0,2.06160242 C0,1.77441402 0.102567285,1.53850927 0.297445126,1.37440161 C0.502579695,1.21029396 0.779511364,1.12824013 1.12824013,1.12824013 L6.08223998,1.12824013 C6.43096875,1.12824013 6.70790042,1.21029396 6.91303499,1.37440161 C7.10791283,1.53850927 7.21048011,1.77441402 7.21048011,2.06160242 L7.21048011,43.9808517 C7.21048011,44.2680401 7.10791283,44.5039448 6.91303499,44.6680525 C6.70790042,44.8321601 6.43096875,44.914214 6.08223998,44.914214 L1.12824013,44.914214 Z" id="Path" fill="#FFFFFF" fill-rule="nonzero"></path>
            </g>
        </g>
    </g>
</svg>